<svg xmlns="http://www.w3.org/2000/svg" width="480pt" height="290pt" viewBox="0 0 480 290" version="1.1" xmlns:xlink="http://www.w3.org/1999/xlink">
  <g id="surface2" transform="matrix(1,0,0,1,0,0)">
    <path style="stroke:none;fill-rule:evenodd;fill:rgb(56.470588%,25.098039%,59.607843%);fill-opacity:1" d="M 273.5 132.398438 C 268.199219 134.964844 262.800781 136.683594 257.300781 137.550781 C 251.832031 138.449219 246.433594 138.785156 241.101562 138.550781 C 235.765625 138.316406 230.667969 137.785156 225.800781 136.949219 C 220.933594 136.148438 216.464844 135.316406 212.398438 134.449219 C 204.535156 132.851562 197.617188 131.667969 191.648438 130.898438 C 185.648438 130.132812 180.300781 129.832031 175.601562 130 C 170.867188 130.167969 166.433594 130.867188 162.300781 132.101562 C 158.167969 133.332031 154 135.132812 149.800781 137.5 C 153.535156 135.699219 157.550781 134.398438 161.851562 133.601562 C 166.148438 132.832031 170.566406 132.417969 175.101562 132.351562 C 179.601562 132.316406 184.015625 132.515625 188.351562 132.949219 C 192.683594 133.382812 196.714844 133.933594 200.449219 134.601562 C 204.214844 135.265625 207.5 135.917969 210.300781 136.550781 C 214.433594 137.484375 219.117188 138.332031 224.351562 139.101562 C 229.617188 139.867188 235.117188 140.300781 240.851562 140.398438 C 246.617188 140.464844 252.300781 139.898438 257.898438 138.699219 C 263.464844 137.5 268.667969 135.398438 273.5 132.398438 M 138 129.351562 C 139.898438 129.25 141.816406 129.101562 143.75 128.898438 C 145.683594 128.734375 147.515625 128.382812 149.25 127.851562 C 151.015625 127.316406 152.566406 126.464844 153.898438 125.300781 C 155.265625 124 156.566406 122.300781 157.800781 120.199219 C 159.066406 118.101562 160.214844 115.882812 161.25 113.550781 C 162.316406 111.214844 163.234375 109.015625 164 106.949219 C 164.765625 104.917969 165.332031 103.300781 165.699219 102.101562 C 166.132812 100.632812 166.617188 99.199219 167.148438 97.800781 C 167.648438 96.433594 168.449219 95.117188 169.550781 93.851562 C 170.617188 92.617188 172.25 91.484375 174.449219 90.449219 C 175.648438 89.917969 177.816406 89.632812 180.949219 89.601562 C 184.050781 89.535156 187.785156 89.667969 192.148438 90 C 196.515625 90.332031 201.148438 90.832031 206.050781 91.5 C 210.917969 92.132812 215.699219 92.882812 220.398438 93.75 C 225.101562 94.617188 229.351562 95.566406 233.148438 96.601562 C 229.851562 95.433594 225.984375 94.285156 221.550781 93.148438 C 217.117188 92.050781 212.484375 91.050781 207.648438 90.148438 C 202.816406 89.25 198.167969 88.515625 193.699219 87.949219 C 189.234375 87.417969 185.300781 87.117188 181.898438 87.050781 C 178.5 86.984375 176 87.25 174.398438 87.851562 C 171.398438 89.082031 169.183594 90.484375 167.75 92.050781 C 166.351562 93.617188 165.398438 95.183594 164.898438 96.75 C 164.398438 98.351562 164.015625 99.765625 163.75 101 C 163.382812 102.464844 162.816406 104.285156 162.050781 106.449219 C 161.25 108.582031 160.351562 110.816406 159.351562 113.148438 C 158.316406 115.449219 157.25 117.550781 156.148438 119.449219 C 155.050781 121.351562 154 122.765625 153 123.699219 C 151.167969 125.300781 148.933594 126.550781 146.300781 127.449219 C 143.632812 128.316406 140.867188 128.949219 138 129.351562 M 299.050781 96.398438 C 295.285156 96.367188 291.332031 97.035156 287.199219 98.398438 C 283.101562 99.800781 278.964844 101.566406 274.800781 103.699219 C 270.632812 105.867188 266.582031 108.066406 262.648438 110.300781 C 258.75 112.535156 255.117188 114.484375 251.75 116.148438 C 248.382812 117.816406 245.433594 118.851562 242.898438 119.25 C 239.234375 119.714844 235.351562 119.367188 231.25 118.199219 C 227.148438 117 223.035156 115.351562 218.898438 113.25 C 214.765625 111.148438 210.800781 108.949219 207 106.648438 C 203.199219 104.351562 199.75 102.316406 196.648438 100.550781 C 193.582031 98.785156 191.082031 97.648438 189.148438 97.148438 C 193.015625 97.785156 196.851562 98.898438 200.648438 100.5 C 204.449219 102.101562 208.214844 103.867188 211.949219 105.800781 C 215.648438 107.765625 219.25 109.632812 222.75 111.398438 C 226.285156 113.167969 229.667969 114.535156 232.898438 115.5 C 236.167969 116.5 239.265625 116.832031 242.199219 116.5 C 244.433594 116.132812 247.035156 115.117188 250 113.449219 C 252.964844 111.785156 256.265625 109.816406 259.898438 107.550781 C 263.535156 105.285156 267.433594 103.066406 271.601562 100.898438 C 275.800781 98.734375 280.214844 96.964844 284.851562 95.601562 C 289.484375 94.265625 294.300781 93.683594 299.300781 93.851562 C 305.933594 94.214844 312.867188 95.464844 320.101562 97.601562 C 327.367188 99.734375 334.632812 102.433594 341.898438 105.699219 C 337.398438 104.132812 332.648438 102.667969 327.648438 101.300781 C 322.683594 99.933594 317.734375 98.800781 312.800781 97.898438 C 307.898438 97.035156 303.316406 96.535156 299.050781 96.398438 "/>
  </g>
  <g id="surface4">
    <text style="fill:rgb(0,0,0)" font-family="Futura Md BT" font-size="32" transform="matrix(1,0,0,1,6.150000000000006,192.4)" xml:space="preserve"><![CDATA[Southwest WomanCare OBGYN]]></text>
  </g>
</svg>